<?xml version="1.0" encoding="utf-8"?>
<!-- Generator: Adobe Illustrator 16.0.0, SVG Export Plug-In . SVG Version: 6.00 Build 0)  -->
<!DOCTYPE svg PUBLIC "-//W3C//DTD SVG 1.1//EN" "http://www.w3.org/Graphics/SVG/1.1/DTD/svg11.dtd">
<svg version="1.1" id="Layer_1" xmlns="http://www.w3.org/2000/svg" xmlns:xlink="http://www.w3.org/1999/xlink" x="0px" y="0px"
	 width="9.927px" height="21.214px" viewBox="0 0 9.927 21.214" enable-background="new 0 0 9.927 21.214" xml:space="preserve" class="logo">
<g id="jpFn8z_1_"  class="drawerImg">
	<path  class="drawerImg" fill-rule="evenodd" clip-rule="evenodd" d="M9.513,10.635c-1.015,0-1.972,0-2.967,0c0,3.536,0,7.049,0,10.58
		c-1.483,0-2.927,0-4.406,0c0-3.519,0-7.031,0-10.58c-0.73,0-1.428,0-2.14,0c0-1.208,0-2.379,0-3.598c0.266,0,0.536,0,0.806,0
		c0.36,0.001,0.72-0.001,1.081,0.006c0.182,0.003,0.248-0.063,0.246-0.257C2.128,5.817,2.14,4.848,2.143,3.879
		C2.149,1.833,3.41,0.348,5.44,0.11c0.958-0.112,1.933-0.081,2.9-0.104c0.512-0.013,1.025-0.002,1.552-0.002
		c0,1.251,0,2.474,0,3.737c-0.09,0-0.179,0-0.271,0c-0.66,0-1.321-0.001-1.98,0C6.979,3.744,6.564,4.155,6.564,4.808
		c0,0.72,0,1.439,0,2.207c1.115,0,2.213,0,3.363,0C9.786,8.246,9.652,9.425,9.513,10.635z"/>
</g>
</svg>
