<?xml version="1.0" encoding="utf-8"?>
<!-- Generator: Adobe Illustrator 16.0.0, SVG Export Plug-In . SVG Version: 6.00 Build 0)  -->
<!DOCTYPE svg PUBLIC "-//W3C//DTD SVG 1.1//EN" "http://www.w3.org/Graphics/SVG/1.1/DTD/svg11.dtd">
<svg version="1.1" id="Layer_1" xmlns="http://www.w3.org/2000/svg" xmlns:xlink="http://www.w3.org/1999/xlink" x="0px" y="0px"
	 width="26.264px" height="21.214px" viewBox="0 0 26.264 21.214" enable-background="new 0 0 26.264 21.214" xml:space="preserve">
<g id="jpFn8z_1_">
	<path fill="#C2C2C2" d="M17.521,10.635c-1.015,0-1.972,0-2.967,0c0,3.537,0,7.049,0,10.58c-1.483,0-2.927,0-4.406,0
		c0-3.519,0-7.03,0-10.58c-0.729,0-1.428,0-2.14,0c0-1.208,0-2.379,0-3.598c0.266,0,0.536,0,0.806,0
		c0.36,0.001,0.72-0.001,1.081,0.006c0.182,0.003,0.248-0.063,0.246-0.257c-0.005-0.969,0.007-1.938,0.01-2.907
		c0.006-2.046,1.268-3.531,3.297-3.769c0.958-0.112,1.934-0.081,2.9-0.104c0.512-0.013,1.025-0.002,1.552-0.002
		c0,1.251,0,2.474,0,3.737c-0.09,0-0.179,0-0.271,0c-0.66,0-1.321-0.001-1.98,0c-0.662,0.003-1.077,0.414-1.077,1.067
		c0,0.72,0,1.439,0,2.207c1.115,0,2.213,0,3.363,0C17.794,8.246,17.659,9.425,17.521,10.635z"/>
</g>
</svg>
